<?xml version="1.0" standalone="no"?>
<!DOCTYPE svg PUBLIC "-//W3C//DTD SVG 20010904//EN"
 "http://www.w3.org/TR/2001/REC-SVG-20010904/DTD/svg10.dtd">
<svg version="1.0" xmlns="http://www.w3.org/2000/svg"
 width="467.000000pt" height="129.000000pt" viewBox="0 0 467.000000 129.000000"
 preserveAspectRatio="xMidYMid meet">

<g transform="translate(0.000000,129.000000) scale(0.100000,-0.100000)"
fill="#000000" stroke="none">
<path d="M3490 1235 c-139 -64 -140 -66 -140 -234 0 -136 -1 -139 -22 -145
-13 -3 -49 -21 -80 -39 l-56 -35 -33 34 c-17 18 -54 43 -82 55 -44 18 -62 20
-127 15 -41 -3 -82 -6 -90 -5 -8 0 -45 0 -82 0 -70 -1 -77 4 -57 40 15 30 13
112 -5 147 -41 79 -142 123 -238 103 -29 -6 -174 -29 -322 -51 -166 -25 -278
-46 -293 -55 -31 -21 -43 -54 -43 -118 0 -86 -6 -97 -51 -97 -48 0 -139 -31
-189 -64 -33 -21 -41 -23 -97 -14 -51 8 -67 6 -93 -7 -18 -9 -34 -14 -37 -12
-2 3 -9 72 -14 154 -5 81 -12 162 -15 180 -6 38 -55 83 -90 83 -34 0 -263 -96
-291 -121 -14 -14 -25 -43 -34 -89 -6 -38 -15 -73 -18 -78 -3 -5 -31 -12 -61
-15 l-56 -7 4 36 c6 52 -23 117 -73 163 -56 52 -103 71 -191 78 -87 7 -173 -7
-332 -54 -184 -54 -199 -77 -147 -227 47 -134 62 -162 98 -179 29 -14 36 -31
112 -246 50 -143 89 -240 103 -253 38 -38 87 -31 165 25 l66 48 43 -31 c87
-63 213 -75 315 -30 25 11 47 20 49 20 2 0 4 -14 4 -30 0 -42 24 -96 48 -109
12 -6 79 -11 160 -11 l140 0 26 31 c14 17 26 39 26 50 0 10 2 19 6 19 3 0 38
-24 77 -54 93 -68 109 -76 150 -76 56 0 94 48 89 113 -1 13 6 17 31 17 17 0
60 6 95 14 58 12 62 12 62 -6 0 -43 29 -89 67 -104 53 -23 238 -16 277 9 44
29 48 55 36 225 -6 85 -9 156 -8 157 2 2 24 6 50 10 l47 7 3 -162 3 -162 33
-29 c32 -29 34 -29 153 -29 134 0 168 11 193 59 14 26 22 29 83 35 37 4 74 11
82 15 9 6 21 2 35 -11 19 -17 36 -19 166 -20 80 0 276 -1 435 -4 228 -3 306 0
367 11 50 10 84 12 100 6 16 -6 63 -4 134 5 60 7 117 13 127 14 10 0 32 14 49
31 l31 30 -6 120 -7 119 35 0 c52 0 229 118 244 162 26 78 -40 182 -152 240
-47 24 -81 26 -292 15 -149 -7 -204 -18 -226 -45 -12 -15 -33 -20 -100 -25
-46 -3 -94 -8 -106 -12 l-23 -7 0 124 c0 205 -9 274 -38 303 -37 37 -88 32
-202 -20z m151 -167 c1 -73 4 -190 8 -260 l6 -127 44 30 c84 56 184 72 274 45
l47 -14 0 38 0 37 93 12 c78 10 93 10 101 -2 8 -12 16 -12 54 -1 100 30 190 9
246 -56 24 -29 44 -77 35 -84 -2 -2 -40 -27 -83 -56 -75 -50 -80 -52 -93 -34
-45 63 -55 66 -80 27 -15 -23 -18 -52 -19 -183 l-1 -155 -89 -12 c-133 -17
-144 -17 -144 8 0 16 -4 19 -17 14 -110 -46 -259 -60 -328 -31 -31 13 -35 13
-35 0 0 -13 -27 -14 -192 -12 -182 3 -195 4 -225 26 l-32 22 -3 -22 c-3 -22
-8 -23 -104 -26 l-101 -3 -6 118 c-5 119 -39 259 -62 257 -5 0 -19 -16 -30
-35 -17 -30 -20 -52 -20 -174 l0 -140 -60 -7 c-159 -21 -145 -15 -145 -54 l0
-34 -109 0 -108 0 -7 92 c-3 50 -6 149 -6 220 0 128 0 129 -22 126 -14 -2 -24
-12 -28 -28 -5 -23 -14 -26 -114 -45 l-108 -19 6 -46 c3 -25 8 -111 12 -192
l7 -146 -57 -7 c-55 -7 -142 -3 -152 8 -3 2 -7 43 -11 90 l-6 85 -31 -18 c-60
-35 -143 -52 -235 -48 l-88 3 5 -72 c3 -46 1 -73 -6 -73 -5 0 -68 42 -139 94
-71 51 -142 101 -157 111 l-28 19 7 -97 7 -97 -114 0 -115 0 -7 52 c-3 29 -6
88 -6 131 0 42 -2 77 -5 77 -2 0 -26 -23 -52 -51 -89 -96 -214 -127 -313 -77
-106 54 -149 234 -86 357 8 15 35 46 61 70 107 98 231 115 339 44 l39 -25 -6
53 c-4 30 -7 64 -7 77 0 21 -3 23 -30 17 -27 -6 -30 -4 -29 17 0 13 6 43 12
67 l12 44 110 47 c61 27 114 44 119 39 5 -4 16 -111 24 -236 8 -125 16 -229
17 -231 2 -2 38 15 80 39 l76 42 71 -10 c67 -9 72 -8 98 14 87 73 202 89 339
47 19 -6 22 -4 19 12 -2 13 -12 18 -32 19 l-30 0 3 105 c1 58 6 108 10 112 3
4 123 25 266 47 222 34 262 37 271 25 9 -12 14 -11 29 6 13 14 31 20 63 20 37
0 50 -6 78 -34 35 -35 42 -64 24 -110 -23 -63 -86 -84 -150 -51 -27 14 -29 14
-32 -8 -3 -20 -14 -24 -145 -46 l-143 -24 0 -52 0 -51 103 16 c56 9 105 15
110 13 4 -2 7 -16 8 -31 l1 -27 9 30 c8 27 21 35 118 75 60 24 113 45 118 45
4 0 9 -11 11 -25 l3 -26 76 9 c55 7 81 7 95 -2 14 -9 32 -8 80 5 92 23 136 14
201 -46 29 -26 58 -59 65 -72 l13 -24 40 38 c48 46 123 85 179 94 l42 7 -7
157 c-6 128 -5 159 6 166 25 16 174 82 187 83 9 1 12 -32 13 -131z m-3048 -32
c70 -30 112 -100 96 -159 -12 -45 -85 -145 -163 -223 l-61 -61 37 -134 c20
-73 36 -134 35 -134 -1 -1 -27 -21 -58 -43 -31 -23 -61 -42 -66 -42 -13 0 -6
-17 -110 280 -47 135 -87 247 -89 249 -3 3 -10 -1 -16 -7 -7 -7 -17 -12 -24
-12 -11 0 -91 207 -83 214 8 7 166 56 224 70 79 19 236 20 278 2z"/>
<path d="M818 631 c-34 -40 -35 -65 -3 -96 47 -47 119 -25 140 44 7 23 7 23
-16 7 -28 -19 -63 -21 -77 -3 -6 6 -12 28 -14 47 l-3 34 -27 -33z"/>
<path d="M3375 634 c-33 -36 -32 -77 1 -103 38 -30 64 -28 64 6 0 14 -7 35
-16 45 -9 10 -17 31 -18 48 -1 16 -2 30 -4 30 -2 0 -14 -12 -27 -26z"/>
<path d="M1717 603 c-23 -6 -47 -54 -47 -93 l0 -32 23 29 c13 15 36 45 51 66
30 39 25 44 -27 30z"/>
<path d="M1881 525 c-80 -95 -89 -129 -12 -48 l48 52 26 -27 27 -27 -1 50 c-1
96 -7 96 -88 0z"/>
<path d="M3792 603 c-19 -7 -42 -58 -42 -90 l1 -28 30 35 c17 19 39 47 50 63
l20 27 -23 -1 c-13 0 -29 -3 -36 -6z"/>
<path d="M3951 514 c-72 -87 -74 -113 -3 -36 37 40 51 49 60 40 9 -9 12 -3 12
30 0 23 -1 42 -3 42 -1 0 -31 -34 -66 -76z"/>
<path d="M1451 502 c-35 -30 -41 -40 -30 -48 8 -6 30 -22 49 -37 l35 -25 0 74
c0 41 -2 74 -5 74 -3 0 -25 -17 -49 -38z"/>
<path d="M418 843 c-21 -5 -23 -29 -7 -70 l11 -28 39 45 c21 25 39 48 39 53 0
7 -53 8 -82 0z"/>
</g>
</svg>
